<svg width="80" height="80" viewBox="0 0 80 80" fill="none" xmlns="http://www.w3.org/2000/svg">
<g clip-path="url(#clip0_2_86)">
<path d="M40 0C17.9133 0 0 18.3628 0 41.0112C0 59.1313 11.46 74.5037 27.3567 79.9274C29.3533 80.3068 30 79.0354 30 77.9555V70.3206C18.8733 72.8017 16.5567 65.4812 16.5567 65.4812C14.7367 60.741 12.1133 59.4799 12.1133 59.4799C8.48333 56.9338 12.39 56.9885 12.39 56.9885C16.4067 57.2756 18.52 61.2161 18.52 61.2161C22.0867 67.484 27.8767 65.6726 30.16 64.6234C30.5167 61.9748 31.5533 60.1635 32.7 59.1416C23.8167 58.0992 14.4767 54.5825 14.4767 38.8718C14.4767 34.3913 16.04 30.7345 18.5967 27.8637C18.1833 26.8282 16.8133 22.6553 18.9867 17.0094C18.9867 17.0094 22.3467 15.9089 29.99 21.213C33.18 20.304 36.6 19.8494 40 19.8323C43.4 19.8494 46.8233 20.304 50.02 21.213C57.6567 15.9089 61.01 17.0094 61.01 17.0094C63.1867 22.6587 61.8167 26.8316 61.4033 27.8637C63.97 30.7345 65.52 34.3947 65.52 38.8718C65.52 54.6235 56.1633 58.0924 47.2567 59.1074C48.69 60.3788 50 62.8736 50 66.7013V77.9555C50 79.0457 50.64 80.3273 52.67 79.924C68.5533 74.4935 80 59.1245 80 41.0112C80 18.3628 62.09 0 40 0Z" fill="#1D1B1B"/>
</g>
<defs>
<clipPath id="clip0_2_86">
<rect width="80" height="80" fill="white"/>
</clipPath>
</defs>
</svg>
